<?xml version="1.0" encoding="UTF-8"?>
<svg id="Layer_1" data-name="Layer 1" xmlns="http://www.w3.org/2000/svg" viewBox="0 0 216 216">
  <defs>
    <style>
      .cls-1 {
        fill: #603913;
      }

      .cls-1, .cls-2, .cls-3 {
        stroke-width: 0px;
      }

      .cls-2 {
        fill: #009444;
      }

      .cls-3 {
        fill: #006838;
      }
    </style>
  </defs>
  <path class="cls-1" d="M92.11,132.95v20.47c0,19.97,16.19,36.17,36.17,36.17h28.77c19.97,0,36.17-16.19,36.17-36.17v-20.47c0-19.97-16.19-36.17-36.17-36.17h-28.77c-19.97,0-36.17,16.19-36.17,36.17ZM148.09,181.38h-10.87c-19.97,0-36.17-16.19-36.17-36.17v-4.04c0-19.97,16.19-36.17,36.17-36.17h10.87c19.97,0,36.17,16.19,36.17,36.17v4.04c0,19.97-16.19,36.17-36.17,36.17Z"/>
  <path class="cls-2" d="M153.77,103.14h-22.21c-19.06,0-34.51,15.45-34.51,34.51v11.08c0,19.06,15.45,34.51,34.51,34.51h22.21c19.06,0,34.51-15.45,34.51-34.51v-11.08c0-19.06-15.45-34.51-34.51-34.51ZM184.57,145.48c0,19.06-15.45,34.51-34.51,34.51h-14.81c-19.06,0-34.51-15.45-34.51-34.51v-4.58c0-19.06,15.45-34.51,34.51-34.51h14.81c19.06,0,34.51,15.45,34.51,34.51v4.58Z"/>
  <rect class="cls-1" x="17.89" y="193.34" width="175.32" height="18.64"/>
  <rect class="cls-3" x="17.89" y="183.47" width="175.32" height="9.87"/>
</svg>