<?xml version="1.0" encoding="UTF-8"?>
<svg id="Layer_1" data-name="Layer 1" xmlns="http://www.w3.org/2000/svg" viewBox="0 0 216 216">
  <defs>
    <style>
      .cls-1 {
        fill: #875110;
      }

      .cls-1, .cls-2, .cls-3, .cls-4, .cls-5 {
        stroke-width: 0px;
      }

      .cls-2 {
        fill: none;
      }

      .cls-3 {
        fill: #f7941d;
      }

      .cls-4 {
        fill: #f17229;
      }

      .cls-5 {
        fill: #c97918;
      }
    </style>
  </defs>
  <path class="cls-5" d="M129.71,37.97c-41.34,0-74.86,33.51-74.86,74.86s33.51,74.86,74.86,74.86,74.86-33.51,74.86-74.86-33.51-74.86-74.86-74.86ZM129.71,181.49c-37.92,0-68.66-30.74-68.66-68.66s30.74-68.66,68.66-68.66,68.66,30.74,68.66,68.66-30.74,68.66-68.66,68.66Z"/>
  <path class="cls-3" d="M129.71,42.18c-39.02,0-70.65,31.63-70.65,70.65s31.63,70.65,70.65,70.65,70.65-31.63,70.65-70.65-31.63-70.65-70.65-70.65ZM129.71,177.62c-35.79,0-64.8-29.01-64.8-64.8s29.01-64.8,64.8-64.8,64.8,29.01,64.8,64.8-29.01,64.8-64.8,64.8Z"/>
  <path class="cls-3" d="M186.41,42.01s0,8.3-10.37,10.37c4.57,4.25,8.82,1.66,10.58,10.58,4.25-3.53,2.83-12.28,11.48-11.48-3.49-2.94-12.42-2.94-11.69-9.47Z"/>
  <path class="cls-3" d="M198.36,28.32s0,6.65-8.32,8.32c3.66,3.41,7.07,1.33,8.49,8.49,3.41-2.83,2.27-9.85,9.21-9.21-2.8-2.36-9.96-2.36-9.38-7.6Z"/>
  <path class="cls-4" d="M186.7,46.58s0,4.68-5.85,5.85c2.57,2.4,4.97.93,5.97,5.97,2.4-1.99,1.6-6.92,6.47-6.47-1.97-1.66-7-1.66-6.59-5.34Z"/>
  <path class="cls-4" d="M198.56,31.51s0,4.13-5.16,5.16c2.27,2.12,4.39.82,5.26,5.26,2.12-1.75,1.41-6.11,5.71-5.71-1.74-1.46-6.18-1.46-5.81-4.71Z"/>
  <path class="cls-2" d="M126.23,42.18c-37.1,0-67.17,30.07-67.17,67.17s30.07,67.17,67.17,67.17,67.17-30.07,67.17-67.17-30.07-67.17-67.17-67.17ZM126.23,170.96c-34.03,0-61.61-27.58-61.61-61.61s27.58-61.61,61.61-61.61,61.61,27.58,61.61,61.61-27.58,61.61-61.61,61.61Z"/>
  <path class="cls-1" d="M129.71,45.65c-37.1,0-67.17,30.07-67.17,67.17s30.07,67.17,67.17,67.17,67.17-30.07,67.17-67.17-30.07-67.17-67.17-67.17ZM129.71,174.43c-34.03,0-61.61-27.58-61.61-61.61s27.58-61.61,61.61-61.61,61.61,27.58,61.61,61.61-27.58,61.61-61.61,61.61Z"/>
</svg>