<?xml version="1.0" encoding="UTF-8"?>
<svg id="Layer_1" data-name="Layer 1" xmlns="http://www.w3.org/2000/svg" viewBox="0 0 216 216">
  <defs>
    <style>
      .cls-1 {
        fill: #d7df23;
      }

      .cls-1, .cls-2, .cls-3, .cls-4, .cls-5, .cls-6, .cls-7 {
        stroke-width: 0px;
      }

      .cls-2 {
        fill: #e296ff;
      }

      .cls-3 {
        fill: #8dc63f;
      }

      .cls-4 {
        fill: #27aae1;
      }

      .cls-5 {
        fill: #be545e;
      }

      .cls-6 {
        fill: #fbb040;
      }

      .cls-7 {
        fill: #006838;
      }
    </style>
  </defs>
  <g>
    <rect class="cls-3" x="56.08" y="147.85" width="3.13" height="66.02"/>
    <rect class="cls-2" x="60.62" y="140.15" width="11.71" height="14.54" rx="3.69" ry="3.69" transform="translate(213.9 80.94) rotate(90)"/>
    <rect class="cls-2" x="43.61" y="140.3" width="11.71" height="14.54" rx="3.69" ry="3.69" transform="translate(197.04 98.1) rotate(90)"/>
    <rect class="cls-2" x="51.47" y="132.46" width="11.71" height="14.54" rx="3.69" ry="3.69" transform="translate(114.66 279.47) rotate(-180)"/>
    <rect class="cls-2" x="51.79" y="147.85" width="11.71" height="14.54" rx="3.69" ry="3.69" transform="translate(115.29 310.24) rotate(-180)"/>
    <circle class="cls-6" cx="57.64" cy="147.85" r="5.86"/>
  </g>
  <g>
    <rect class="cls-3" x="141.62" y="148.04" width="3.13" height="66.02"/>
    <rect class="cls-4" x="146.16" y="140.35" width="11.71" height="14.54" rx="3.69" ry="3.69" transform="translate(299.64 -4.4) rotate(90)"/>
    <rect class="cls-4" x="129.15" y="140.49" width="11.71" height="14.54" rx="3.69" ry="3.69" transform="translate(282.77 12.75) rotate(90)"/>
    <rect class="cls-4" x="137.01" y="132.66" width="11.71" height="14.54" rx="3.69" ry="3.69" transform="translate(285.74 279.86) rotate(-180)"/>
    <rect class="cls-4" x="137.33" y="148.04" width="11.71" height="14.54" rx="3.69" ry="3.69" transform="translate(286.37 310.63) rotate(-180)"/>
    <circle class="cls-6" cx="143.18" cy="148.04" r="5.86"/>
  </g>
  <g>
    <rect class="cls-3" x="87.66" y="162.05" width="2.43" height="51.35"/>
    <rect class="cls-1" x="91.2" y="156.07" width="9.11" height="11.31" rx="3.69" ry="3.69" transform="translate(257.48 65.97) rotate(90)"/>
    <rect class="cls-1" x="77.97" y="156.18" width="9.11" height="11.31" rx="3.69" ry="3.69" transform="translate(244.36 79.31) rotate(90)"/>
    <rect class="cls-1" x="84.08" y="150.09" width="9.11" height="11.31" rx="3.69" ry="3.69" transform="translate(177.28 311.48) rotate(-180)"/>
    <rect class="cls-1" x="84.33" y="162.05" width="9.11" height="11.31" rx="3.69" ry="3.69" transform="translate(177.76 335.41) rotate(-180)"/>
    <circle class="cls-6" cx="88.88" cy="162.05" r="4.56"/>
  </g>
  <g>
    <rect class="cls-3" x="114" y="162.05" width="2.43" height="51.35"/>
    <rect class="cls-5" x="117.53" y="156.07" width="9.11" height="11.31" rx="3.69" ry="3.69" transform="translate(283.81 39.64) rotate(90)"/>
    <rect class="cls-5" x="104.3" y="156.18" width="9.11" height="11.31" rx="3.69" ry="3.69" transform="translate(270.69 52.98) rotate(90)"/>
    <rect class="cls-5" x="110.41" y="150.09" width="9.11" height="11.31" rx="3.69" ry="3.69" transform="translate(229.94 311.48) rotate(-180)"/>
    <rect class="cls-5" x="110.66" y="162.05" width="9.11" height="11.31" rx="3.69" ry="3.69" transform="translate(230.43 335.41) rotate(-180)"/>
    <circle class="cls-6" cx="115.21" cy="162.05" r="4.56"/>
  </g>
  <rect class="cls-7" x="54.3" y="171.43" width="6.96" height="1.93"/>
  <rect class="cls-7" x="54.3" y="179.43" width="6.96" height="1.62"/>
  <rect class="cls-7" x="54.3" y="189.68" width="6.96" height="1.93"/>
  <rect class="cls-7" x="54.3" y="197.68" width="6.96" height="1.62"/>
  <rect class="cls-7" x="86.3" y="179.43" width="5.8" height="1.62"/>
  <rect class="cls-7" x="86.3" y="183.96" width="5.57" height="2.09"/>
  <rect class="cls-7" x="86.3" y="194.38" width="5.8" height="1.62"/>
  <rect class="cls-7" x="86.3" y="198.9" width="5.57" height="2.09"/>
  <rect class="cls-7" x="112.65" y="180.24" width="5.48" height="2.06"/>
  <rect class="cls-7" x="112.65" y="186.04" width="5.48" height="1.68"/>
  <rect class="cls-7" x="112.65" y="196" width="5.48" height="1.69"/>
  <rect class="cls-7" x="112.65" y="199.94" width="5.48" height="1.04"/>
  <rect class="cls-7" x="140.3" y="171.43" width="6" height="1.93"/>
  <rect class="cls-7" x="140.3" y="176.04" width="6" height="1.83"/>
  <rect class="cls-7" x="140.3" y="187.73" width="6" height="1.95"/>
  <rect class="cls-7" x="140.3" y="192.74" width="6" height="1.64"/>
</svg>