<?xml version="1.0" encoding="UTF-8"?>
<svg id="Layer_1" data-name="Layer 1" xmlns="http://www.w3.org/2000/svg" viewBox="0 0 216 216">
  <defs>
    <style>
      .cls-1 {
        fill: none;
      }

      .cls-1, .cls-2 {
        stroke: #231f20;
        stroke-linecap: round;
        stroke-linejoin: round;
        stroke-width: 2px;
      }

      .cls-2 {
        fill: #d1d3d4;
      }
    </style>
  </defs>
  <g>
    <polygon class="cls-1" points="84.33 156.25 84.17 156.25 84.25 155.87 84.33 156.25"/>
    <polygon class="cls-1" points="109.37 156.25 109.17 156.25 109.27 155.76 109.37 156.25"/>
    <polygon class="cls-1" points="134.48 156.25 134.42 156.55 134.36 156.25 134.48 156.25"/>
  </g>
  <polygon class="cls-2" points="64.5 129.92 59.14 156.25 53.98 130.91 59.34 104.58 64.5 129.92"/>
  <polygon class="cls-2" points="78.87 129.41 73.4 156.25 69.87 156.25 64.5 129.92 71.74 94.42 78.87 129.41"/>
  <polygon class="cls-2" points="53.98 130.91 48.82 156.25 44.92 156.25 39.43 129.34 46.55 94.42 53.98 130.91"/>
  <polygon class="cls-2" points="39.43 129.34 33.95 156.25 23.86 156.25 34.39 104.58 39.43 129.34"/>
  <polygon class="cls-2" points="89.31 131.04 84.25 155.87 78.87 129.41 83.92 104.58 89.31 131.04"/>
  <polygon class="cls-2" points="129.02 130.03 123.67 156.25 119.61 156.25 114.39 130.62 121.76 94.42 129.02 130.03"/>
  <polygon class="cls-2" points="103.96 129.72 98.56 156.25 94.44 156.25 89.31 131.04 96.77 94.42 103.96 129.72"/>
  <polygon class="cls-2" points="114.39 130.62 109.27 155.76 103.96 129.72 109.08 104.58 114.39 130.62"/>
  <polygon class="cls-2" points="170.13 156.25 159.67 156.25 154.38 130.25 159.6 104.58 170.13 156.25"/>
  <polygon class="cls-2" points="139.6 131.1 134.48 156.25 134.36 156.25 129.02 130.03 134.2 104.58 139.6 131.1"/>
  <polygon class="cls-2" points="154.38 130.25 149.08 156.25 144.72 156.25 139.6 131.1 147.08 94.42 154.38 130.25"/>
  <polygon class="cls-2" points="44.92 156.25 33.95 156.25 39.43 129.34 44.92 156.25"/>
  <polygon class="cls-2" points="59.14 156.25 48.82 156.25 53.98 130.91 59.14 156.25"/>
  <polygon class="cls-2" points="69.87 156.25 59.14 156.25 64.5 129.92 69.87 156.25"/>
  <polygon class="cls-2" points="84.25 155.87 84.17 156.25 73.4 156.25 78.87 129.41 84.25 155.87"/>
  <polygon class="cls-2" points="94.44 156.25 84.33 156.25 84.25 155.87 89.31 131.04 94.44 156.25"/>
  <line class="cls-1" x1="84.33" y1="156.25" x2="84.17" y2="156.25"/>
  <polygon class="cls-2" points="109.27 155.76 109.17 156.25 98.56 156.25 103.96 129.72 109.27 155.76"/>
  <polygon class="cls-2" points="119.61 156.25 109.37 156.25 109.27 155.76 114.39 130.62 119.61 156.25"/>
  <line class="cls-1" x1="109.37" y1="156.25" x2="109.17" y2="156.25"/>
  <polygon class="cls-2" points="134.36 156.25 123.67 156.25 129.02 130.03 134.36 156.25"/>
  <polygon class="cls-2" points="144.72 156.25 134.48 156.25 139.6 131.1 144.72 156.25"/>
  <polygon class="cls-2" points="159.67 156.25 149.08 156.25 154.38 130.25 159.67 156.25"/>
</svg>