<?xml version="1.0" encoding="UTF-8"?>
<svg id="Layer_1" data-name="Layer 1" xmlns="http://www.w3.org/2000/svg" viewBox="0 0 300 300">
  <defs>
    <style>
      .cls-1 {
        fill: none;
        stroke: #875110;
      }

      .cls-1, .cls-2 {
        stroke-miterlimit: 10;
        stroke-width: 3px;
      }

      .cls-2 {
        fill: #f7941d;
        stroke: #c97918;
      }
    </style>
  </defs>
  <path class="cls-2" d="M52.47,42.34v188.95c0,6.75,5.47,12.22,12.22,12.22h180.09c6.75,0,12.22-5.47,12.22-12.22v-14.69c0-6.75-5.47-12.22-12.22-12.22H103.29c-6.75,0-12.22-5.47-12.22-12.22V42.34c0-6.75-5.47-12.22-12.22-12.22h-14.17c-6.75,0-12.22,5.47-12.22,12.22Z"/>
  <path class="cls-1" d="M57.78,47.74v177.48c0,6.75,5.47,12.22,12.22,12.22h170.69c6.75,0,12.22-5.47,12.22-12.22v-2.17c0-6.75-5.47-12.22-12.22-12.22H97.65c-6.75,0-12.22-5.47-12.22-12.22V47.74c0-6.75-5.47-12.22-12.22-12.22h-3.22c-6.75,0-12.22,5.47-12.22,12.22Z"/>
</svg>