<?xml version="1.0" encoding="UTF-8"?>
<svg id="Layer_1" data-name="Layer 1" xmlns="http://www.w3.org/2000/svg" viewBox="0 0 300 300">
  <defs>
    <style>
      .cls-1 {
        fill: none;
        stroke: #875110;
      }

      .cls-1, .cls-2 {
        stroke-miterlimit: 10;
        stroke-width: 3px;
      }

      .cls-2 {
        fill: #f7941d;
        stroke: #c97918;
      }
    </style>
  </defs>
  <path class="cls-2" d="M224.57,78.26v18.83c0,4.32-3.5,7.83-7.83,7.83h-121.05c-4.32,0-7.83,3.5-7.83,7.83v23.48c0,4.32,3.5,7.83,7.83,7.83h121.05c4.32,0,7.83,3.5,7.83,7.83v16.18c0,4.32-3.5,7.83-7.83,7.83h-120.53c-4.32,0-7.83,3.5-7.83,7.83v41.22c0,4.32,3.5,7.83,7.83,7.83h120.53c4.32,0,7.83,3.5,7.83,7.83v20.87c0,4.32-3.5,7.83-7.83,7.83H68.57c-4.32,0-7.83-3.5-7.83-7.83V77.31c0-4.34,3.53-7.85,7.88-7.83l148.18.95c4.3.03,7.78,3.52,7.78,7.83Z"/>
  <path class="cls-1" d="M211,74.65H74.83c-4.32,0-7.83,3.5-7.83,7.83v173.74c0,4.32,3.5,7.83,7.83,7.83h136.17c4.32,0,7.83-3.5,7.83-7.83v-8.87c0-4.32-3.5-7.83-7.83-7.83h-121.04c-4.32,0-7.83-3.5-7.83-7.83v-54.52c0-4.32,3.5-7.83,7.83-7.83h121.04c4.32,0,7.83-3.5,7.83-7.83v-3.7c0-4.32-3.5-7.83-7.83-7.83h-120c-4.32,0-7.83-3.5-7.83-7.83v-34.13c0-4.32,3.5-7.83,7.83-7.83h120c4.32,0,7.83-3.5,7.83-7.83v-9.91c0-4.32-3.5-7.83-7.83-7.83Z"/>
</svg>