<?xml version="1.0" encoding="UTF-8"?>
<svg id="Layer_1" data-name="Layer 1" xmlns="http://www.w3.org/2000/svg" viewBox="0 0 300 300">
  <defs>
    <style>
      .cls-1 {
        stroke: #875110;
      }

      .cls-1, .cls-2, .cls-3 {
        stroke-miterlimit: 10;
        stroke-width: 3px;
      }

      .cls-1, .cls-3 {
        fill: none;
      }

      .cls-2 {
        fill: #f7941d;
      }

      .cls-2, .cls-3 {
        stroke: #c97918;
      }
    </style>
  </defs>
  <g>
    <path class="cls-2" d="M189.61,220.91v10.44c0,4.61-3.74,8.35-8.35,8.35h-116.87c-4.61,0-8.35-3.74-8.35-8.35V63.7c0-4.61,3.74-8.35,8.35-8.35h116.87c2.3,0,4.39.93,5.9,2.45,1.52,1.51,2.45,3.6,2.45,5.9,0,4.61-3.74,8.34-8.35,8.34h-94.96c-4.61,0-8.34,3.74-8.34,8.35v123.83c0,4.61,3.73,8.35,8.34,8.35h80.7"/>
    <path class="cls-2" d="M167,212.57v-16.35c0-5.77-4.67-10.44-10.43-10.44h-46.27c-2.88,0-5.49-1.17-7.38-3.06s-3.05-4.49-3.05-7.37c0-5.77,4.67-10.44,10.43-10.44h68.87c5.77,0,10.44,4.67,10.44,10.44v45.56"/>
    <path class="cls-3" d="M189.61,220.91v10.44c0,4.61-3.74,8.35-8.35,8.35h-116.87c-4.61,0-8.35-3.74-8.35-8.35V63.7c0-4.61,3.74-8.35,8.35-8.35h116.87c2.3,0,4.39.93,5.9,2.45,1.52,1.51,2.45,3.6,2.45,5.9,0,4.61-3.74,8.34-8.35,8.34h-94.96c-4.61,0-8.34,3.74-8.34,8.35v123.83c0,4.61,3.73,8.35,8.34,8.35h80.7"/>
    <path class="cls-3" d="M167,212.57v-16.35c0-5.77-4.67-10.44-10.43-10.44h-46.27c-2.88,0-5.49-1.17-7.38-3.06s-3.05-4.49-3.05-7.37c0-5.77,4.67-10.44,10.43-10.44h68.87c5.77,0,10.44,4.67,10.44,10.44v45.56"/>
  </g>
  <path class="cls-1" d="M179.26,60.04h-111.13c-2.74,0-4.96,2.22-4.96,4.96v163.83c0,2.74,2.22,4.96,4.96,4.96h111.13c2.74,0,4.96-2.22,4.96-4.96v-53.74c0-2.74-2.22-4.96-4.96-4.96h-67.83c-2.74,0-4.96,2.22-4.96,4.96h0c0,2.74,2.22,4.96,4.96,4.96h52.7c2.74,0,4.96,2.22,4.96,4.96v27.13c0,2.74-2.22,4.96-4.96,4.96h-84.52c-2.74,0-4.96-2.22-4.96-4.96V74.91c0-2.74,2.22-4.96,4.96-4.96h99.65c2.74,0,4.96-2.22,4.96-4.96h0c0-2.74-2.22-4.96-4.96-4.96Z"/>
</svg>